<svg fill="#fff" xmlns="http://www.w3.org/2000/svg" xmlns:xlink="http://www.w3.org/1999/xlink" version="1.1" x="0px" y="0px" viewBox="0 0 100 100" enable-background="new 0 0 100 100" xml:space="preserve"><path  d="M50,5.06C25.181,5.06,5.061,25.18,5.061,50c0,24.819,20.12,44.939,44.939,44.939S94.939,74.819,94.939,50  C94.939,25.18,74.819,5.06,50,5.06z M74.199,34.19C59.397,44.714,45.855,57.885,36.785,73.766c-0.949,1.661-1.869,3.344-2.678,5.077  c-1.081,2.316-0.844,0.761-2.277-1.343c-3.199-4.688-7.502-9.559-12.913-11.757c-0.479-0.195-0.071-6.561-0.071-7.093  c0-0.479,0.395-6.961,0.071-7.092c5.759,2.34,10.732,7.836,13.748,13.089c1.187,2.067,0.846,1.238,1.595-0.309  c0.782-1.616,1.623-3.206,2.526-4.757c9.227-15.859,22.535-28.999,37.414-39.577c-0.546,0.388,0.071,6.396,0.071,7.092  C74.271,27.875,74.881,33.704,74.199,34.19z"></path></svg>
